<svg width="137" height="126" viewBox="0 0 137 126" fill="none" xmlns="http://www.w3.org/2000/svg">
<path fill-rule="evenodd" clip-rule="evenodd" d="M29 43.3896L29.0328 78.8616C29.0328 108.146 68.0066 125.6 68.0066 125.6C68.0066 125.6 106.993 109.12 106.993 78.7677L107 43.3896C107 43.3896 89.5444 32 68.0066 32C46.4556 32 29 43.3896 29 43.3896V43.3896ZM100.939 80.1121C100.939 103.267 69.9919 119.342 67.8821 120.252V120.34L67.7838 120.299L67.6855 120.34V120.252C65.5756 119.342 34.6285 103.267 34.6285 80.1121L34.6023 46.8593C34.6023 46.8593 49.3977 37.6126 67.6855 37.5363V37.5304L67.7838 37.5363L67.8821 37.5304V37.5363C86.1699 37.6126 100.965 46.8593 100.965 46.8593L100.939 80.1121V80.1121ZM93.6789 81.0515C93.6789 101.218 69.625 113.118 67.9803 113.911V113.981C67.9803 113.981 67.9148 113.958 67.9083 113.946L67.8296 113.981V113.905C66.185 113.113 42.1376 101.212 42.1376 81.0456L42.1114 52.1079C42.1114 52.1079 53.6174 44.0647 67.8296 43.9943H67.9803C82.1991 44.0647 93.692 52.1079 93.692 52.1079L93.6789 81.0515Z" fill="#29A867"/>
<path d="M80.262 55.4L88.2232 55.4067L88.2277 63.1885L75.9432 75.2621L82.2978 81.5109L85.4773 78.3876L88.6546 81.5109L83.0955 86.9778L89.4501 93.2267L86.2728 96.35L79.916 90.1012L74.3546 95.5681L71.1773 92.4448L74.3546 89.3192L67.9978 83.0726L61.6432 89.3192L64.8228 92.4448L61.6455 95.5681L56.0841 90.1012L49.7273 96.35L46.55 93.2267L52.9069 86.9756L47.3455 81.5109L50.5228 78.3876L53.7001 81.5087L60.0524 75.2621L47.7837 63.2017L47.7769 55.4L55.7448 55.4067L67.9978 67.4538L80.262 55.4ZM63.2296 78.3854L56.8773 84.632L58.4682 86.1937L64.8205 79.9471L63.2319 78.3854H63.2296ZM83.7314 59.8199H82.1203L71.1773 70.5749L72.7637 72.1365L83.7314 61.3595V59.8199V59.8199ZM52.2732 59.8199V61.3661L77.5319 86.1959L79.1205 84.6342L53.8798 59.8222L52.2732 59.8199V59.8199Z" fill="white"/>
<path d="M12.696 23L9.456 18.32H9.264H5.88V23H1.992V6.2H9.264C10.752 6.2 12.04 6.448 13.128 6.944C14.232 7.44 15.08 8.144 15.672 9.056C16.264 9.968 16.56 11.048 16.56 12.296C16.56 13.544 16.256 14.624 15.648 15.536C15.056 16.432 14.208 17.12 13.104 17.6L16.872 23H12.696ZM12.624 12.296C12.624 11.352 12.32 10.632 11.712 10.136C11.104 9.624 10.216 9.368 9.048 9.368H5.88V15.224H9.048C10.216 15.224 11.104 14.968 11.712 14.456C12.32 13.944 12.624 13.224 12.624 12.296ZM24.4673 9.896C26.4673 9.896 28.0033 10.376 29.0753 11.336C30.1473 12.28 30.6833 13.712 30.6833 15.632V23H27.1793V21.392C26.4753 22.592 25.1633 23.192 23.2433 23.192C22.2513 23.192 21.3873 23.024 20.6513 22.688C19.9313 22.352 19.3793 21.888 18.9953 21.296C18.6113 20.704 18.4193 20.032 18.4193 19.28C18.4193 18.08 18.8673 17.136 19.7633 16.448C20.6753 15.76 22.0753 15.416 23.9633 15.416H26.9393C26.9393 14.6 26.6913 13.976 26.1953 13.544C25.6993 13.096 24.9553 12.872 23.9633 12.872C23.2753 12.872 22.5953 12.984 21.9233 13.208C21.2673 13.416 20.7073 13.704 20.2433 14.072L18.8993 11.456C19.6033 10.96 20.4433 10.576 21.4193 10.304C22.4113 10.032 23.4273 9.896 24.4673 9.896ZM24.1793 20.672C24.8193 20.672 25.3873 20.528 25.8833 20.24C26.3793 19.936 26.7313 19.496 26.9393 18.92V17.6H24.3713C22.8353 17.6 22.0673 18.104 22.0673 19.112C22.0673 19.592 22.2513 19.976 22.6193 20.264C23.0033 20.536 23.5233 20.672 24.1793 20.672ZM41.9198 9.896C43.5198 9.896 44.8078 10.376 45.7838 11.336C46.7758 12.296 47.2718 13.72 47.2718 15.608V23H43.5278V16.184C43.5278 15.16 43.3038 14.4 42.8558 13.904C42.4078 13.392 41.7598 13.136 40.9118 13.136C39.9678 13.136 39.2158 13.432 38.6558 14.024C38.0958 14.6 37.8158 15.464 37.8158 16.616V23H34.0718V10.088H37.6478V11.6C38.1438 11.056 38.7598 10.64 39.4958 10.352C40.2318 10.048 41.0398 9.896 41.9198 9.896ZM63.2471 10.088L57.7991 23H53.9351L48.5111 10.088H52.3751L55.9511 18.872L59.6471 10.088H63.2471ZM64.7749 10.088H68.5189V23H64.7749V10.088ZM66.6469 8.288C65.9589 8.288 65.3989 8.088 64.9669 7.688C64.5349 7.288 64.3189 6.792 64.3189 6.2C64.3189 5.608 64.5349 5.112 64.9669 4.712C65.3989 4.312 65.9589 4.112 66.6469 4.112C67.3349 4.112 67.8949 4.304 68.3269 4.688C68.7589 5.072 68.9749 5.552 68.9749 6.128C68.9749 6.752 68.7589 7.272 68.3269 7.688C67.8949 8.088 67.3349 8.288 66.6469 8.288ZM77.5901 23.288C76.2621 23.288 74.9741 23.112 73.7261 22.76C72.4941 22.392 71.5021 21.92 70.7501 21.344L72.0701 18.416C72.7901 18.944 73.6461 19.368 74.6381 19.688C75.6301 20.008 76.6221 20.168 77.6141 20.168C78.7181 20.168 79.5341 20.008 80.0621 19.688C80.5901 19.352 80.8541 18.912 80.8541 18.368C80.8541 17.968 80.6941 17.64 80.3741 17.384C80.0701 17.112 79.6701 16.896 79.1741 16.736C78.6941 16.576 78.0381 16.4 77.2061 16.208C75.9261 15.904 74.8781 15.6 74.0621 15.296C73.2461 14.992 72.5421 14.504 71.9501 13.832C71.3741 13.16 71.0861 12.264 71.0861 11.144C71.0861 10.168 71.3501 9.288 71.8781 8.504C72.4061 7.704 73.1981 7.072 74.2541 6.608C75.3261 6.144 76.6301 5.912 78.1661 5.912C79.2381 5.912 80.2861 6.04 81.3101 6.296C82.3341 6.552 83.2301 6.92 83.9981 7.4L82.7981 10.352C81.2461 9.472 79.6941 9.032 78.1421 9.032C77.0541 9.032 76.2461 9.208 75.7181 9.56C75.2061 9.912 74.9501 10.376 74.9501 10.952C74.9501 11.528 75.2461 11.96 75.8381 12.248C76.4461 12.52 77.3661 12.792 78.5981 13.064C79.8781 13.368 80.9261 13.672 81.7421 13.976C82.5581 14.28 83.2541 14.76 83.8301 15.416C84.4221 16.072 84.7181 16.96 84.7181 18.08C84.7181 19.04 84.4461 19.92 83.9021 20.72C83.3741 21.504 82.5741 22.128 81.5021 22.592C80.4301 23.056 79.1261 23.288 77.5901 23.288ZM95.4388 22.376C95.0708 22.648 94.6148 22.856 94.0708 23C93.5428 23.128 92.9828 23.192 92.3908 23.192C90.8548 23.192 89.6628 22.8 88.8148 22.016C87.9828 21.232 87.5668 20.08 87.5668 18.56V13.256H85.5748V10.376H87.5668V7.232H91.3108V10.376H94.5268V13.256H91.3108V18.512C91.3108 19.056 91.4468 19.48 91.7188 19.784C92.0068 20.072 92.4068 20.216 92.9188 20.216C93.5108 20.216 94.0148 20.056 94.4308 19.736L95.4388 22.376ZM103.286 23.192C101.926 23.192 100.702 22.912 99.6141 22.352C98.5421 21.776 97.7021 20.984 97.0941 19.976C96.4861 18.968 96.1821 17.824 96.1821 16.544C96.1821 15.264 96.4861 14.12 97.0941 13.112C97.7021 12.104 98.5421 11.32 99.6141 10.76C100.702 10.184 101.926 9.896 103.286 9.896C104.646 9.896 105.862 10.184 106.934 10.76C108.006 11.32 108.846 12.104 109.454 13.112C110.062 14.12 110.366 15.264 110.366 16.544C110.366 17.824 110.062 18.968 109.454 19.976C108.846 20.984 108.006 21.776 106.934 22.352C105.862 22.912 104.646 23.192 103.286 23.192ZM103.286 20.12C104.246 20.12 105.03 19.8 105.638 19.16C106.262 18.504 106.574 17.632 106.574 16.544C106.574 15.456 106.262 14.592 105.638 13.952C105.03 13.296 104.246 12.968 103.286 12.968C102.326 12.968 101.534 13.296 100.91 13.952C100.286 14.592 99.9741 15.456 99.9741 16.544C99.9741 17.632 100.286 18.504 100.91 19.16C101.534 19.8 102.326 20.12 103.286 20.12ZM116.445 11.792C116.893 11.168 117.493 10.696 118.245 10.376C119.013 10.056 119.893 9.896 120.885 9.896V13.352C120.469 13.32 120.189 13.304 120.045 13.304C118.973 13.304 118.133 13.608 117.525 14.216C116.917 14.808 116.613 15.704 116.613 16.904V23H112.869V10.088H116.445V11.792ZM135.642 16.592C135.642 16.64 135.618 16.976 135.57 17.6H125.802C125.978 18.4 126.394 19.032 127.05 19.496C127.706 19.96 128.522 20.192 129.498 20.192C130.17 20.192 130.762 20.096 131.274 19.904C131.802 19.696 132.29 19.376 132.738 18.944L134.73 21.104C133.514 22.496 131.738 23.192 129.402 23.192C127.946 23.192 126.658 22.912 125.538 22.352C124.418 21.776 123.554 20.984 122.946 19.976C122.338 18.968 122.034 17.824 122.034 16.544C122.034 15.28 122.33 14.144 122.922 13.136C123.53 12.112 124.354 11.32 125.394 10.76C126.45 10.184 127.626 9.896 128.922 9.896C130.186 9.896 131.33 10.168 132.354 10.712C133.378 11.256 134.178 12.04 134.754 13.064C135.346 14.072 135.642 15.248 135.642 16.592ZM128.946 12.728C128.098 12.728 127.386 12.968 126.81 13.448C126.234 13.928 125.882 14.584 125.754 15.416H132.114C131.986 14.6 131.634 13.952 131.058 13.472C130.482 12.976 129.778 12.728 128.946 12.728Z" fill="#29A867"/>
</svg>
