<svg width="103" height="70" viewBox="0 0 103 70" fill="none" xmlns="http://www.w3.org/2000/svg">
<path fill-rule="evenodd" clip-rule="evenodd" d="M31 27.8408L31.0168 46.0316C31.0168 61.0491 51.0034 70 51.0034 70C51.0034 70 70.9966 61.5489 70.9966 45.9834L71 27.8408C71 27.8408 62.0484 22 51.0034 22C39.9516 22 31 27.8408 31 27.8408ZM67.8918 46.6729C67.8918 58.5472 52.0215 66.7906 50.9395 67.2572V67.3024L50.8891 67.2813L50.8387 67.3024V67.2572C49.7567 66.7906 33.8864 58.5472 33.8864 46.6729L33.873 29.6201C33.873 29.6201 41.4604 24.8783 50.8387 24.8391V24.8361L50.8891 24.8391L50.9395 24.8361V24.8391C60.3179 24.8783 67.9052 29.6201 67.9052 29.6201L67.8918 46.6729ZM64.1687 47.1546C64.1687 57.4965 51.8333 63.5992 50.9899 64.0056V64.0418C50.9899 64.0418 50.9563 64.0297 50.953 64.0237L50.9126 64.0418V64.0026C50.0692 63.5962 37.7372 57.4934 37.7372 47.1516L37.7238 32.3117C37.7238 32.3117 43.6243 28.187 50.9126 28.1509H50.9899C58.2816 28.187 64.1754 32.3117 64.1754 32.3117L64.1687 47.1546Z" fill="#29A867"/>
<path d="M57.2882 34L61.3708 34.0034L61.3731 37.9941L55.0734 44.1857L58.3322 47.3902L59.9627 45.7885L61.5921 47.3902L58.7413 50.1938L62 53.3983L60.3706 55L57.1107 51.7955L54.2587 54.599L52.6294 52.9973L54.2587 51.3945L50.9988 48.1911L47.7401 51.3945L49.3706 52.9973L47.7413 54.599L44.8893 51.7955L41.6294 55L40 53.3983L43.2599 50.1926L40.4079 47.3902L42.0373 45.7885L43.6667 47.3891L46.9243 44.1857L40.6326 38.0009L40.6292 34L44.7153 34.0034L50.9988 40.1814L57.2882 34ZM48.5536 45.7874L45.296 48.9908L46.1119 49.7916L49.3695 46.5882L48.5548 45.7874H48.5536ZM59.0674 36.2666H58.2411L52.6294 41.782L53.4429 42.5828L59.0674 37.0562V36.2666V36.2666ZM42.9349 36.2666V37.0596L55.8881 49.7928L56.7028 48.9919L43.7589 36.2678L42.9349 36.2666V36.2666Z" fill="white"/>
<path d="M9.522 17L7.092 13.49H6.948H4.41V17H1.494V4.4H6.948C8.064 4.4 9.03 4.586 9.846 4.958C10.674 5.33 11.31 5.858 11.754 6.542C12.198 7.226 12.42 8.036 12.42 8.972C12.42 9.908 12.192 10.718 11.736 11.402C11.292 12.074 10.656 12.59 9.828 12.95L12.654 17H9.522ZM9.468 8.972C9.468 8.264 9.24 7.724 8.784 7.352C8.328 6.968 7.662 6.776 6.786 6.776H4.41V11.168H6.786C7.662 11.168 8.328 10.976 8.784 10.592C9.24 10.208 9.468 9.668 9.468 8.972ZM18.3504 7.172C19.8504 7.172 21.0024 7.532 21.8064 8.252C22.6104 8.96 23.0124 10.034 23.0124 11.474V17H20.3844V15.794C19.8564 16.694 18.8724 17.144 17.4324 17.144C16.6884 17.144 16.0404 17.018 15.4884 16.766C14.9484 16.514 14.5344 16.166 14.2464 15.722C13.9584 15.278 13.8144 14.774 13.8144 14.21C13.8144 13.31 14.1504 12.602 14.8224 12.086C15.5064 11.57 16.5564 11.312 17.9724 11.312H20.2044C20.2044 10.7 20.0184 10.232 19.6464 9.908C19.2744 9.572 18.7164 9.404 17.9724 9.404C17.4564 9.404 16.9464 9.488 16.4424 9.656C15.9504 9.812 15.5304 10.028 15.1824 10.304L14.1744 8.342C14.7024 7.97 15.3324 7.682 16.0644 7.478C16.8084 7.274 17.5704 7.172 18.3504 7.172ZM18.1344 15.254C18.6144 15.254 19.0404 15.146 19.4124 14.93C19.7844 14.702 20.0484 14.372 20.2044 13.94V12.95H18.2784C17.1264 12.95 16.5504 13.328 16.5504 14.084C16.5504 14.444 16.6884 14.732 16.9644 14.948C17.2524 15.152 17.6424 15.254 18.1344 15.254ZM31.4398 7.172C32.6398 7.172 33.6058 7.532 34.3378 8.252C35.0818 8.972 35.4538 10.04 35.4538 11.456V17H32.6458V11.888C32.6458 11.12 32.4778 10.55 32.1418 10.178C31.8058 9.794 31.3198 9.602 30.6838 9.602C29.9758 9.602 29.4118 9.824 28.9918 10.268C28.5718 10.7 28.3618 11.348 28.3618 12.212V17H25.5538V7.316H28.2358V8.45C28.6078 8.042 29.0698 7.73 29.6218 7.514C30.1738 7.286 30.7798 7.172 31.4398 7.172ZM47.4353 7.316L43.3493 17H40.4513L36.3833 7.316H39.2813L41.9633 13.904L44.7353 7.316H47.4353ZM48.5812 7.316H51.3892V17H48.5812V7.316ZM49.9852 5.966C49.4692 5.966 49.0492 5.816 48.7252 5.516C48.4012 5.216 48.2392 4.844 48.2392 4.4C48.2392 3.956 48.4012 3.584 48.7252 3.284C49.0492 2.984 49.4692 2.834 49.9852 2.834C50.5012 2.834 50.9212 2.978 51.2452 3.266C51.5692 3.554 51.7312 3.914 51.7312 4.346C51.7312 4.814 51.5692 5.204 51.2452 5.516C50.9212 5.816 50.5012 5.966 49.9852 5.966ZM58.1926 17.216C57.1966 17.216 56.2306 17.084 55.2946 16.82C54.3706 16.544 53.6266 16.19 53.0626 15.758L54.0526 13.562C54.5926 13.958 55.2346 14.276 55.9786 14.516C56.7226 14.756 57.4666 14.876 58.2106 14.876C59.0386 14.876 59.6506 14.756 60.0466 14.516C60.4426 14.264 60.6406 13.934 60.6406 13.526C60.6406 13.226 60.5206 12.98 60.2806 12.788C60.0526 12.584 59.7526 12.422 59.3806 12.302C59.0206 12.182 58.5286 12.05 57.9046 11.906C56.9446 11.678 56.1586 11.45 55.5466 11.222C54.9346 10.994 54.4066 10.628 53.9626 10.124C53.5306 9.62 53.3146 8.948 53.3146 8.108C53.3146 7.376 53.5126 6.716 53.9086 6.128C54.3046 5.528 54.8986 5.054 55.6906 4.706C56.4946 4.358 57.4726 4.184 58.6246 4.184C59.4286 4.184 60.2146 4.28 60.9826 4.472C61.7506 4.664 62.4226 4.94 62.9986 5.3L62.0986 7.514C60.9346 6.854 59.7706 6.524 58.6066 6.524C57.7906 6.524 57.1846 6.656 56.7886 6.92C56.4046 7.184 56.2126 7.532 56.2126 7.964C56.2126 8.396 56.4346 8.72 56.8786 8.936C57.3346 9.14 58.0246 9.344 58.9486 9.548C59.9086 9.776 60.6946 10.004 61.3066 10.232C61.9186 10.46 62.4406 10.82 62.8726 11.312C63.3166 11.804 63.5386 12.47 63.5386 13.31C63.5386 14.03 63.3346 14.69 62.9266 15.29C62.5306 15.878 61.9306 16.346 61.1266 16.694C60.3226 17.042 59.3446 17.216 58.1926 17.216ZM71.5791 16.532C71.3031 16.736 70.9611 16.892 70.5531 17C70.1571 17.096 69.7371 17.144 69.2931 17.144C68.1411 17.144 67.2471 16.85 66.6111 16.262C65.9871 15.674 65.6751 14.81 65.6751 13.67V9.692H64.1811V7.532H65.6751V5.174H68.4831V7.532H70.8951V9.692H68.4831V13.634C68.4831 14.042 68.5851 14.36 68.7891 14.588C69.0051 14.804 69.3051 14.912 69.6891 14.912C70.1331 14.912 70.5111 14.792 70.8231 14.552L71.5791 16.532ZM77.4645 17.144C76.4445 17.144 75.5265 16.934 74.7105 16.514C73.9065 16.082 73.2765 15.488 72.8205 14.732C72.3645 13.976 72.1365 13.118 72.1365 12.158C72.1365 11.198 72.3645 10.34 72.8205 9.584C73.2765 8.828 73.9065 8.24 74.7105 7.82C75.5265 7.388 76.4445 7.172 77.4645 7.172C78.4845 7.172 79.3965 7.388 80.2005 7.82C81.0045 8.24 81.6345 8.828 82.0905 9.584C82.5465 10.34 82.7745 11.198 82.7745 12.158C82.7745 13.118 82.5465 13.976 82.0905 14.732C81.6345 15.488 81.0045 16.082 80.2005 16.514C79.3965 16.934 78.4845 17.144 77.4645 17.144ZM77.4645 14.84C78.1845 14.84 78.7725 14.6 79.2285 14.12C79.6965 13.628 79.9305 12.974 79.9305 12.158C79.9305 11.342 79.6965 10.694 79.2285 10.214C78.7725 9.722 78.1845 9.476 77.4645 9.476C76.7445 9.476 76.1505 9.722 75.6825 10.214C75.2145 10.694 74.9805 11.342 74.9805 12.158C74.9805 12.974 75.2145 13.628 75.6825 14.12C76.1505 14.6 76.7445 14.84 77.4645 14.84ZM87.3335 8.594C87.6695 8.126 88.1195 7.772 88.6835 7.532C89.2595 7.292 89.9195 7.172 90.6635 7.172V9.764C90.3515 9.74 90.1415 9.728 90.0335 9.728C89.2295 9.728 88.5995 9.956 88.1435 10.412C87.6875 10.856 87.4595 11.528 87.4595 12.428V17H84.6515V7.316H87.3335V8.594ZM101.731 12.194C101.731 12.23 101.713 12.482 101.677 12.95H94.3512C94.4832 13.55 94.7952 14.024 95.2872 14.372C95.7792 14.72 96.3912 14.894 97.1232 14.894C97.6272 14.894 98.0712 14.822 98.4552 14.678C98.8512 14.522 99.2172 14.282 99.5532 13.958L101.047 15.578C100.135 16.622 98.8032 17.144 97.0512 17.144C95.9592 17.144 94.9932 16.934 94.1532 16.514C93.3132 16.082 92.6652 15.488 92.2092 14.732C91.7532 13.976 91.5252 13.118 91.5252 12.158C91.5252 11.21 91.7472 10.358 92.1912 9.602C92.6472 8.834 93.2652 8.24 94.0452 7.82C94.8372 7.388 95.7192 7.172 96.6912 7.172C97.6392 7.172 98.4972 7.376 99.2652 7.784C100.033 8.192 100.633 8.78 101.065 9.548C101.509 10.304 101.731 11.186 101.731 12.194ZM96.7092 9.296C96.0732 9.296 95.5392 9.476 95.1072 9.836C94.6752 10.196 94.4112 10.688 94.3152 11.312H99.0852C98.9892 10.7 98.7252 10.214 98.2932 9.854C97.8612 9.482 97.3332 9.296 96.7092 9.296Z" fill="#29A867"/>
</svg>
