<svg width="161" height="108" viewBox="0 0 161 108" fill="none" xmlns="http://www.w3.org/2000/svg">
<path fill-rule="evenodd" clip-rule="evenodd" d="M49 34.8851L49.0227 59.4427C49.0227 79.7163 76.0045 91.8 76.0045 91.8C76.0045 91.8 102.995 80.391 102.995 59.3776L103 34.8851C103 34.8851 90.9153 27 76.0045 27C61.0847 27 49 34.8851 49 34.8851V34.8851ZM98.8039 60.3084C98.8039 76.3387 77.379 87.4673 75.9183 88.0973V88.1582L75.8503 88.1298L75.7823 88.1582V88.0973C74.3216 87.4673 52.8967 76.3387 52.8967 60.3084L52.8785 37.2872C52.8785 37.2872 63.1215 30.8856 75.7823 30.8328V30.8287L75.8503 30.8328L75.9183 30.8287V30.8328C88.5791 30.8856 98.8221 37.2872 98.8221 37.2872L98.8039 60.3084V60.3084ZM93.7777 60.9587C93.7777 74.9202 77.125 83.1589 75.9864 83.7076V83.7564C75.9864 83.7564 75.941 83.7401 75.9365 83.732L75.8821 83.7564V83.7036C74.7434 83.1548 58.0953 74.9161 58.0953 60.9547L58.0771 40.9208C58.0771 40.9208 66.0428 35.3525 75.8821 35.3037H75.9864C85.8301 35.3525 93.7868 40.9208 93.7868 40.9208L93.7777 60.9587Z" fill="#29A867"/>
<path d="M84.4892 43.2001L90.0008 43.2047L90.0039 48.5921L81.4993 56.9507L85.8986 61.2769L88.0998 59.1145L90.2995 61.2769L86.4508 65.0616L90.8501 69.3878L88.6505 71.5501L84.2496 67.2239L80.3995 71.0087L78.1998 68.8464L80.3995 66.6826L75.9986 62.358L71.5993 66.6826L73.8005 68.8464L71.6008 71.0087L67.7507 67.2239L63.3498 71.5501L61.1501 69.3878L65.551 65.0601L61.7008 61.2769L63.9005 59.1145L66.1001 61.2753L70.4979 56.9507L62.0042 48.6012L61.9995 43.2001L67.5158 43.2047L75.9986 51.545L84.4892 43.2001ZM72.6976 59.113L68.2998 63.4376L69.4012 64.5188L73.7989 60.1942L72.6991 59.113H72.6976ZM86.8911 46.26H85.7757L78.1998 53.7057L79.2981 54.7869L86.8911 47.3259V46.26V46.26ZM65.1123 46.26V47.3305L82.5991 64.5203L83.6989 63.4392L66.2246 46.2615L65.1123 46.26V46.26Z" fill="white"/>
<rect x="103" y="89.3964" width="54.3063" height="16.045" rx="3" fill="#29A867"/>
<path d="M114.834 99.2H110.934L110.19 101H108.198L111.942 92.6H113.862L117.618 101H115.578L114.834 99.2ZM114.222 97.724L112.89 94.508L111.558 97.724H114.222ZM124.875 92.096V101H123.087V100.256C122.623 100.816 121.951 101.096 121.071 101.096C120.463 101.096 119.911 100.96 119.415 100.688C118.927 100.416 118.543 100.028 118.263 99.524C117.983 99.02 117.843 98.436 117.843 97.772C117.843 97.108 117.983 96.524 118.263 96.02C118.543 95.516 118.927 95.128 119.415 94.856C119.911 94.584 120.463 94.448 121.071 94.448C121.895 94.448 122.539 94.708 123.003 95.228V92.096H124.875ZM121.395 99.56C121.867 99.56 122.259 99.4 122.571 99.08C122.883 98.752 123.039 98.316 123.039 97.772C123.039 97.228 122.883 96.796 122.571 96.476C122.259 96.148 121.867 95.984 121.395 95.984C120.915 95.984 120.519 96.148 120.207 96.476C119.895 96.796 119.739 97.228 119.739 97.772C119.739 98.316 119.895 98.752 120.207 99.08C120.519 99.4 120.915 99.56 121.395 99.56ZM134.876 94.448C135.684 94.448 136.324 94.688 136.796 95.168C137.276 95.64 137.516 96.352 137.516 97.304V101H135.644V97.592C135.644 97.08 135.536 96.7 135.32 96.452C135.112 96.196 134.812 96.068 134.42 96.068C133.98 96.068 133.632 96.212 133.376 96.5C133.12 96.78 132.992 97.2 132.992 97.76V101H131.12V97.592C131.12 96.576 130.712 96.068 129.896 96.068C129.464 96.068 129.12 96.212 128.864 96.5C128.608 96.78 128.48 97.2 128.48 97.76V101H126.608V94.544H128.396V95.288C128.636 95.016 128.928 94.808 129.272 94.664C129.624 94.52 130.008 94.448 130.424 94.448C130.88 94.448 131.292 94.54 131.66 94.724C132.028 94.9 132.324 95.16 132.548 95.504C132.812 95.168 133.144 94.908 133.544 94.724C133.952 94.54 134.396 94.448 134.876 94.448ZM139.194 94.544H141.066V101H139.194V94.544ZM140.13 93.644C139.786 93.644 139.506 93.544 139.29 93.344C139.074 93.144 138.966 92.896 138.966 92.6C138.966 92.304 139.074 92.056 139.29 91.856C139.506 91.656 139.786 91.556 140.13 91.556C140.474 91.556 140.754 91.652 140.97 91.844C141.186 92.036 141.294 92.276 141.294 92.564C141.294 92.876 141.186 93.136 140.97 93.344C140.754 93.544 140.474 93.644 140.13 93.644ZM146.727 94.448C147.527 94.448 148.171 94.688 148.659 95.168C149.155 95.648 149.403 96.36 149.403 97.304V101H147.531V97.592C147.531 97.08 147.419 96.7 147.195 96.452C146.971 96.196 146.647 96.068 146.223 96.068C145.751 96.068 145.375 96.216 145.095 96.512C144.815 96.8 144.675 97.232 144.675 97.808V101H142.803V94.544H144.591V95.3C144.839 95.028 145.147 94.82 145.515 94.676C145.883 94.524 146.287 94.448 146.727 94.448Z" fill="white"/>
<path d="M9.522 17L7.092 13.49H6.948H4.41V17H1.494V4.4H6.948C8.064 4.4 9.03 4.586 9.846 4.958C10.674 5.33 11.31 5.858 11.754 6.542C12.198 7.226 12.42 8.036 12.42 8.972C12.42 9.908 12.192 10.718 11.736 11.402C11.292 12.074 10.656 12.59 9.828 12.95L12.654 17H9.522ZM9.468 8.972C9.468 8.264 9.24 7.724 8.784 7.352C8.328 6.968 7.662 6.776 6.786 6.776H4.41V11.168H6.786C7.662 11.168 8.328 10.976 8.784 10.592C9.24 10.208 9.468 9.668 9.468 8.972ZM18.3504 7.172C19.8504 7.172 21.0024 7.532 21.8064 8.252C22.6104 8.96 23.0124 10.034 23.0124 11.474V17H20.3844V15.794C19.8564 16.694 18.8724 17.144 17.4324 17.144C16.6884 17.144 16.0404 17.018 15.4884 16.766C14.9484 16.514 14.5344 16.166 14.2464 15.722C13.9584 15.278 13.8144 14.774 13.8144 14.21C13.8144 13.31 14.1504 12.602 14.8224 12.086C15.5064 11.57 16.5564 11.312 17.9724 11.312H20.2044C20.2044 10.7 20.0184 10.232 19.6464 9.908C19.2744 9.572 18.7164 9.404 17.9724 9.404C17.4564 9.404 16.9464 9.488 16.4424 9.656C15.9504 9.812 15.5304 10.028 15.1824 10.304L14.1744 8.342C14.7024 7.97 15.3324 7.682 16.0644 7.478C16.8084 7.274 17.5704 7.172 18.3504 7.172ZM18.1344 15.254C18.6144 15.254 19.0404 15.146 19.4124 14.93C19.7844 14.702 20.0484 14.372 20.2044 13.94V12.95H18.2784C17.1264 12.95 16.5504 13.328 16.5504 14.084C16.5504 14.444 16.6884 14.732 16.9644 14.948C17.2524 15.152 17.6424 15.254 18.1344 15.254ZM31.4398 7.172C32.6398 7.172 33.6058 7.532 34.3378 8.252C35.0818 8.972 35.4538 10.04 35.4538 11.456V17H32.6458V11.888C32.6458 11.12 32.4778 10.55 32.1418 10.178C31.8058 9.794 31.3198 9.602 30.6838 9.602C29.9758 9.602 29.4118 9.824 28.9918 10.268C28.5718 10.7 28.3618 11.348 28.3618 12.212V17H25.5538V7.316H28.2358V8.45C28.6078 8.042 29.0698 7.73 29.6218 7.514C30.1738 7.286 30.7798 7.172 31.4398 7.172ZM47.4353 7.316L43.3493 17H40.4513L36.3833 7.316H39.2813L41.9633 13.904L44.7353 7.316H47.4353ZM48.5812 7.316H51.3892V17H48.5812V7.316ZM49.9852 5.966C49.4692 5.966 49.0492 5.816 48.7252 5.516C48.4012 5.216 48.2392 4.844 48.2392 4.4C48.2392 3.956 48.4012 3.584 48.7252 3.284C49.0492 2.984 49.4692 2.834 49.9852 2.834C50.5012 2.834 50.9212 2.978 51.2452 3.266C51.5692 3.554 51.7312 3.914 51.7312 4.346C51.7312 4.814 51.5692 5.204 51.2452 5.516C50.9212 5.816 50.5012 5.966 49.9852 5.966ZM58.1926 17.216C57.1966 17.216 56.2306 17.084 55.2946 16.82C54.3706 16.544 53.6266 16.19 53.0626 15.758L54.0526 13.562C54.5926 13.958 55.2346 14.276 55.9786 14.516C56.7226 14.756 57.4666 14.876 58.2106 14.876C59.0386 14.876 59.6506 14.756 60.0466 14.516C60.4426 14.264 60.6406 13.934 60.6406 13.526C60.6406 13.226 60.5206 12.98 60.2806 12.788C60.0526 12.584 59.7526 12.422 59.3806 12.302C59.0206 12.182 58.5286 12.05 57.9046 11.906C56.9446 11.678 56.1586 11.45 55.5466 11.222C54.9346 10.994 54.4066 10.628 53.9626 10.124C53.5306 9.62 53.3146 8.948 53.3146 8.108C53.3146 7.376 53.5126 6.716 53.9086 6.128C54.3046 5.528 54.8986 5.054 55.6906 4.706C56.4946 4.358 57.4726 4.184 58.6246 4.184C59.4286 4.184 60.2146 4.28 60.9826 4.472C61.7506 4.664 62.4226 4.94 62.9986 5.3L62.0986 7.514C60.9346 6.854 59.7706 6.524 58.6066 6.524C57.7906 6.524 57.1846 6.656 56.7886 6.92C56.4046 7.184 56.2126 7.532 56.2126 7.964C56.2126 8.396 56.4346 8.72 56.8786 8.936C57.3346 9.14 58.0246 9.344 58.9486 9.548C59.9086 9.776 60.6946 10.004 61.3066 10.232C61.9186 10.46 62.4406 10.82 62.8726 11.312C63.3166 11.804 63.5386 12.47 63.5386 13.31C63.5386 14.03 63.3346 14.69 62.9266 15.29C62.5306 15.878 61.9306 16.346 61.1266 16.694C60.3226 17.042 59.3446 17.216 58.1926 17.216ZM71.5791 16.532C71.3031 16.736 70.9611 16.892 70.5531 17C70.1571 17.096 69.7371 17.144 69.2931 17.144C68.1411 17.144 67.2471 16.85 66.6111 16.262C65.9871 15.674 65.6751 14.81 65.6751 13.67V9.692H64.1811V7.532H65.6751V5.174H68.4831V7.532H70.8951V9.692H68.4831V13.634C68.4831 14.042 68.5851 14.36 68.7891 14.588C69.0051 14.804 69.3051 14.912 69.6891 14.912C70.1331 14.912 70.5111 14.792 70.8231 14.552L71.5791 16.532ZM77.4645 17.144C76.4445 17.144 75.5265 16.934 74.7105 16.514C73.9065 16.082 73.2765 15.488 72.8205 14.732C72.3645 13.976 72.1365 13.118 72.1365 12.158C72.1365 11.198 72.3645 10.34 72.8205 9.584C73.2765 8.828 73.9065 8.24 74.7105 7.82C75.5265 7.388 76.4445 7.172 77.4645 7.172C78.4845 7.172 79.3965 7.388 80.2005 7.82C81.0045 8.24 81.6345 8.828 82.0905 9.584C82.5465 10.34 82.7745 11.198 82.7745 12.158C82.7745 13.118 82.5465 13.976 82.0905 14.732C81.6345 15.488 81.0045 16.082 80.2005 16.514C79.3965 16.934 78.4845 17.144 77.4645 17.144ZM77.4645 14.84C78.1845 14.84 78.7725 14.6 79.2285 14.12C79.6965 13.628 79.9305 12.974 79.9305 12.158C79.9305 11.342 79.6965 10.694 79.2285 10.214C78.7725 9.722 78.1845 9.476 77.4645 9.476C76.7445 9.476 76.1505 9.722 75.6825 10.214C75.2145 10.694 74.9805 11.342 74.9805 12.158C74.9805 12.974 75.2145 13.628 75.6825 14.12C76.1505 14.6 76.7445 14.84 77.4645 14.84ZM87.3335 8.594C87.6695 8.126 88.1195 7.772 88.6835 7.532C89.2595 7.292 89.9195 7.172 90.6635 7.172V9.764C90.3515 9.74 90.1415 9.728 90.0335 9.728C89.2295 9.728 88.5995 9.956 88.1435 10.412C87.6875 10.856 87.4595 11.528 87.4595 12.428V17H84.6515V7.316H87.3335V8.594ZM101.731 12.194C101.731 12.23 101.713 12.482 101.677 12.95H94.3512C94.4832 13.55 94.7952 14.024 95.2872 14.372C95.7792 14.72 96.3912 14.894 97.1232 14.894C97.6272 14.894 98.0712 14.822 98.4552 14.678C98.8512 14.522 99.2172 14.282 99.5532 13.958L101.047 15.578C100.135 16.622 98.8032 17.144 97.0512 17.144C95.9592 17.144 94.9932 16.934 94.1532 16.514C93.3132 16.082 92.6652 15.488 92.2092 14.732C91.7532 13.976 91.5252 13.118 91.5252 12.158C91.5252 11.21 91.7472 10.358 92.1912 9.602C92.6472 8.834 93.2652 8.24 94.0452 7.82C94.8372 7.388 95.7192 7.172 96.6912 7.172C97.6392 7.172 98.4972 7.376 99.2652 7.784C100.033 8.192 100.633 8.78 101.065 9.548C101.509 10.304 101.731 11.186 101.731 12.194ZM96.7092 9.296C96.0732 9.296 95.5392 9.476 95.1072 9.836C94.6752 10.196 94.4112 10.688 94.3152 11.312H99.0852C98.9892 10.7 98.7252 10.214 98.2932 9.854C97.8612 9.482 97.3332 9.296 96.7092 9.296Z" fill="#29A867"/>
</svg>
